<svg xmlns="http://www.w3.org/2000/svg" viewBox="0 0 980.2 730.5">
  <defs>
    <style>
      .cls-1 {
        fill: orange;
      }
    </style>
  </defs>
  <g id="Livello_2" data-name="Livello 2">
    <g id="Livello_1-2" data-name="Livello 1">
      <g>
        <path class="cls-1" d="M191.72,16.4c0,6,4.8,11.2,11.9,14V78.6a5.85,5.85,0,0,0,5.9,5.9,5.91,5.91,0,0,0,5.9-5.9V32.7h148.9V48.2a103.89,103.89,0,0,0-21-2.2c-2.2,0-4.4.2-6.6.3.7-.2,1.2-.3,1.2-.3-42.9-9.9-99.2,9.9-99.2,9.9-7.4,23.2,0,94.8,0,94.8a104.5,104.5,0,0,0,27,70,158.06,158.06,0,0,0-.9,16.9A165.38,165.38,0,0,0,379.52,395c.6-28.1-.9-92.1-24-140.5a104.85,104.85,0,0,0,74.7-45.6,104.89,104.89,0,0,0,69.9,44.9c-23.9,49.3-25,115.3-24.3,142.7a165.31,165.31,0,0,0,119.8-158.9,156.67,156.67,0,0,0-.9-16.9,104,104,0,0,0,27-70,111.08,111.08,0,0,0-1.4-16.4c1.7-22.6,3.7-62.3-1.4-78.4,0,0-56.3-19.7-99.2-9.9l.6.2c-1.1,0-2.1-.2-3.2-.2-3.1,0-6.1.2-9.1.4V32.6h122.2c13.1,0,23.7-7.3,23.7-16.3S643.32,0,630.22,0H215.52C202.32.1,191.72,7.4,191.72,16.4Zm320,47.4a86.9,86.9,0,1,1-81.2,117.6,86.9,86.9,0,1,1,0-61.4A86.81,86.81,0,0,1,511.72,63.8Zm-38.6-7.9a105.46,105.46,0,0,0-26,17.1,156.21,156.21,0,0,0-16.8-.8c-5.7,0-11.3.3-16.9.8a102.7,102.7,0,0,0-26-17.1Z"/>
        <path class="cls-1" d="M307.82,150.7a35.6,35.6,0,1,0,35.6-35.6A35.55,35.55,0,0,0,307.82,150.7Z"/>
        <path class="cls-1" d="M481.62,150.7a35.6,35.6,0,1,0,35.6-35.6A35.55,35.55,0,0,0,481.62,150.7Z"/>
        <path class="cls-1" d="M331.52,403.1c-13.1,0-23.7,9.3-23.7,20.7s10.6,20.7,23.7,20.7h12.9c13.1,0,23.7-9.3,23.7-20.7s-10.6-20.7-23.7-20.7Z"/>
        <path class="cls-1" d="M505.32,403.1c-13.1,0-23.7,9.3-23.7,20.7s10.6,20.7,23.7,20.7h12.9c13.1,0,23.7-9.3,23.7-20.7s-10.6-20.7-23.7-20.7Z"/>
        <path class="cls-1" d="M925.32,452a20.08,20.08,0,0,0-19.2-6.3l-21.2,4.7-312.6-41.1a38.05,38.05,0,0,1,.7,5.9c0,27.7-23.9,50.3-53.3,50.3h-12.9a54.7,54.7,0,0,1-33.2-11c-15.7-11.9-19.8-36.8-20.7-46.2l-1.7-17L404,390l-5.8,33.1c-4.1,24-25.9,42.4-52.5,42.4h-12.9c-29.4,0-53.3-22.6-53.3-50.3,0-.2-220,41.8-220,41.8l-19.9-3.8A19.44,19.44,0,0,0,20,460.9c-54.3,73.7,18.7,165.2,21.9,169.1a19.71,19.71,0,0,0,11.3,6.9l448,93.2a18.1,18.1,0,0,0,4,.4,32.22,32.22,0,0,0,4.8-.6l455.2-113.5a19.73,19.73,0,1,0-9.5-38.3l-5.5,1.4c-39.5-54.1-22-105.5-21.3-107.6A20,20,0,0,0,925.32,452ZM68.72,599.7c-11.3-16-41.8-65.1-22.9-105.1l56.4,10.7c-2.1,23.7-1.4,64.5,19,105.2ZM175.92,622c-.1-.1-.1-.3-.2-.4-33.2-37.6-36-83.5-34.5-108.8l188,36.1c-2.7,20.7-4.8,64.1,15.7,108.3ZM398,668.3c-33-41.2-32.2-90.5-29.9-111.9l92,17.7c-9.3,28.2-13.5,68,3.6,107.9Zm114.9,20.3c-34.2-46.5-19.1-94.2-11.3-112l383.9-85.8c-2,24.8,1.1,61,24.1,98.9Z"/>
      </g>
    </g>
  </g>
</svg>
